<svg xmlns="http://www.w3.org/2000/svg" width="20" height="20" fill="none"><g clip-path="url(#a)"><path fill="#EEE" d="M0 7.167h20v5.666H0V7.166Z"/><path fill="#171796" d="M20 15a2.222 2.222 0 0 1-2.222 2.222H2.222A2.222 2.222 0 0 1 0 15v-2.222h20V15Z"/><path fill="#D52B1E" d="M17.778 2.778H2.222A2.222 2.222 0 0 0 0 5v2.222h20V5a2.222 2.222 0 0 0-2.222-2.222Z"/><path fill="#D52B1E" d="M6.338 4.131v6.408a3.662 3.662 0 1 0 7.323 0V4.131H6.338Z"/><path fill="#fff" d="M7.917 10h1.389v1.389h-1.39V10Zm1.389 1.389h1.389v1.389h-1.39v-1.39Zm0-2.778h1.389V10h-1.39V8.611ZM10.695 10h1.388v1.389h-1.389V10Zm0-2.778h1.388v1.39h-1.389v-1.39Zm1.388 1.39h1.301V10h-1.3V8.611Zm-4.166-1.39h1.389v1.39h-1.39v-1.39Zm4.166 5.556h.448c.352-.399.606-.874.74-1.39h-1.188v1.39Zm-1.389 0v1.072c.507-.107.982-.33 1.39-.65v-.422h-1.39Zm-2.777 0v-1.39H6.728c.135.516.389.991.742 1.39h.447Zm-1.3-4.167h1.3V10h-1.3V8.611Zm1.3 4.167v.422c.407.32.882.543 1.389.65v-1.072h-1.39Z"/><path fill="#171796" d="m13.754 4.523-1.11.439-.738-.934-1.016.625L10 3.86l-.89.794-1.015-.627-.74.936-1.108-.441-.623 1.156.74 1.59.097-.046c.434-.202.89-.368 1.357-.493l.023-.006c.459-.124.928-.208 1.401-.251l.036-.003a10.454 10.454 0 0 1 1.445 0l.032.002c.458.042.932.126 1.409.252l.018.005c.465.125.921.291 1.357.494l.097.046.74-1.59-.622-1.155Z"/><path fill="#0193DD" d="m9.243 4.823.123 1.424c.183-.015.405-.029.634-.029.229 0 .45.014.634.029l.123-1.424L10 4.149l-.757.674Zm4.412-.03-.944.374-.37 1.383c.405.114.805.26 1.19.433l.604-1.298-.48-.892Zm-7.31 0-.48.891.603 1.298A8.602 8.602 0 0 1 7.66 6.55l-.372-1.383-.942-.374Z"/></g><defs><clipPath id="a"><path fill="#fff" d="M0 0h20v20H0z"/></clipPath></defs></svg>