<svg width="645" height="645" viewBox="0 0 645 645" fill="none" xmlns="http://www.w3.org/2000/svg">
<rect x="7.5" y="7.5" width="630" height="630" rx="315" fill="#1E1E20" stroke="#B68867" stroke-width="15"/>
<g clip-path="url(#clip0_25_100)">
<path d="M261.168 303.662H216.606V311.763H261.168C261.065 312.082 261.491 312.466 261.491 312.576V325.534C261.491 325.567 261.039 326.022 261.007 326.022H216.606V334.124H261.168V348.701H202.395C202.499 348.382 202.072 347.999 202.072 347.888V289.891C202.072 289.858 202.525 289.403 202.557 289.403H261.007C261.039 289.403 261.491 289.852 261.491 289.891V302.849C261.491 302.953 261.065 303.343 261.168 303.662Z" fill="#B68867"/>
<path d="M565.529 289.403C568.657 289.845 572.437 293.447 573.348 296.458C574.188 299.228 574.111 313.72 573.729 317.069C573.277 321.003 569.413 325.32 565.451 325.938C564.269 326.12 563.054 325.86 561.968 326.016C561.522 326.081 561.413 325.834 561.49 326.503L572.792 348.701H557.774L545.18 326.022H530.808V347.895C530.808 347.999 530.382 348.389 530.485 348.707H516.598V289.403H565.523H565.529ZM559.552 303.662H530.814V311.763H559.552V303.662Z" fill="#B68867"/>
<path d="M425.215 308.844H411.328V303.662H378.714V334.117H411.328V328.935H425.215C426.417 337.225 425.842 347.375 415.651 348.662C402.488 348.038 388.355 349.631 375.308 348.714C368.672 348.252 364.911 344.098 364.491 337.537C363.683 325.027 365.092 311.614 364.549 299.007C365.001 294.26 368.833 289.839 373.699 289.397C387.231 288.155 402.624 290.365 416.349 289.397C425.939 290.977 426.352 300.97 425.215 308.85V308.844Z" fill="#B68867"/>
<path d="M129.096 303.662H84.2102V311.763H129.096C128.993 312.082 129.419 312.466 129.419 312.576V325.534C129.419 325.567 128.967 326.022 128.935 326.022H84.6949C84.6625 326.022 84.2102 326.471 84.2102 326.51V348.701H70.4847C70.4523 348.701 70 348.252 70 348.213V289.891C70 289.858 70.4523 289.403 70.4847 289.403H128.935C128.967 289.403 129.419 289.852 129.419 289.891V302.849C129.419 302.953 128.993 303.343 129.096 303.662Z" fill="#B68867"/>
<path d="M288.297 289.403C292.219 295.769 296.626 301.848 301.053 307.862L314.294 289.403H331.25L311.011 319.046L331.25 348.694H314.294L301.053 329.91L287.812 348.694H271.34C271.301 348.694 270.694 348.226 271.011 348.051L291.147 318.785L270.855 289.403H288.29H288.297Z" fill="#B68867"/>
<path d="M435.387 348.694L462.179 289.715L478.347 289.377L478.851 289.605L506.774 348.038C507.059 348.239 506.47 348.701 506.425 348.701H491.407L470.58 306.256L450.399 348.701H435.381L435.387 348.694Z" fill="#B68867"/>
<path d="M152.993 289.403V334.117H192.231C192.263 334.117 192.715 334.566 192.715 334.605V348.213C192.715 348.246 192.263 348.701 192.231 348.701H138.789V289.403H152.999H152.993Z" fill="#B68867"/>
<path d="M340.932 348.694V289.403H354.657C354.689 289.403 355.142 289.852 355.142 289.891V348.207C355.142 348.239 354.689 348.694 354.657 348.694H340.932Z" fill="#B68867"/>
</g>
<defs>
<clipPath id="clip0_25_100">
<rect width="504" height="60" fill="white" transform="translate(70 285)"/>
</clipPath>
</defs>
</svg>
