<svg xmlns="http://www.w3.org/2000/svg" width="126" height="16" fill="none"><g fill="#FEFEFF" clip-path="url(#a)"><path d="M47.792 5.165h-11.14v2.026h11.14c-.026.08.08.175.08.203v3.24a.862.862 0 0 1-.12.121h-11.1v2.026h11.14v3.644H33.1c.026-.08-.08-.175-.08-.203v-14.5c0-.008.112-.121.12-.121h14.613c.008 0 .12.112.12.121v3.24c0 .026-.106.124-.08.203ZM123.882 1.6c.782.111 1.727 1.012 1.955 1.764.21.693.191 4.316.095 5.153-.113.983-1.079 2.063-2.069 2.217-.296.046-.6-.02-.871.02-.111.016-.139-.046-.119.122l2.825 5.549h-3.754l-3.149-5.67h-3.593v5.469c0 .026-.107.123-.081.203h-3.472V1.6H123.882Zm-1.494 3.565h-7.184v2.026h7.184V5.165ZM88.804 6.461h-3.472V5.166h-8.153v7.614h8.153v-1.296h3.472c.3 2.072.156 4.61-2.391 4.932-3.291-.156-6.824.242-10.086.013-1.66-.116-2.6-1.154-2.704-2.794-.202-3.128.15-6.481.014-9.633.113-1.187 1.071-2.292 2.288-2.403 3.383-.31 7.23.243 10.662 0 2.398.395 2.501 2.894 2.217 4.864V6.46ZM14.774 5.165H3.553v2.026h11.221c-.026.08.08.175.08.203v3.24a.862.862 0 0 1-.12.121H3.674a.786.786 0 0 0-.121.122v5.548H.12A.781.781 0 0 1 0 16.303V1.723C0 1.714.113 1.6.121 1.6h14.613c.008 0 .12.112.12.121v3.24c0 .026-.106.124-.08.203ZM54.574 1.6c.98 1.592 2.083 3.112 3.19 4.615l3.31-4.614h4.239l-5.06 7.41 5.06 7.412h-4.24l-3.31-4.696-3.31 4.696h-4.118c-.01 0-.162-.117-.082-.16l5.034-7.317-5.073-7.345h4.36ZM91.347 16.424l6.698-14.745 4.042-.085.126.057 6.981 14.608c.071.05-.076.166-.088.166h-3.754l-5.207-10.611L95.1 16.425h-3.755l.002-.001ZM20.748 1.6v11.18h9.81a.78.78 0 0 1 .12.121v3.402a.862.862 0 0 1-.12.122h-13.36V1.601h3.552-.002ZM67.733 16.423V1.601h3.431c.008 0 .121.112.121.121v14.58a.862.862 0 0 1-.12.121h-3.432Z"/></g><defs><clipPath id="a"><path fill="#fff" d="M0 .5h126v15H0z"/></clipPath></defs></svg>
